<?xml version="1.0" encoding="UTF-8" standalone="no"?>
<!-- Created with Inkscape (http://www.inkscape.org/) -->

<svg
   width="113.56363mm"
   height="112.80665mm"
   viewBox="0 0 113.56363 112.80665"
   version="1.1"
   id="svg1"
   xml:space="preserve"
   inkscape:version="1.4 (e7c3feb100, 2024-10-09)"
   sodipodi:docname="trickledown_icon.svg"
   xmlns:inkscape="http://www.inkscape.org/namespaces/inkscape"
   xmlns:sodipodi="http://sodipodi.sourceforge.net/DTD/sodipodi-0.dtd"
   xmlns="http://www.w3.org/2000/svg"
   xmlns:svg="http://www.w3.org/2000/svg"><sodipodi:namedview
     id="namedview1"
     pagecolor="#ffffff"
     bordercolor="#000000"
     borderopacity="0.25"
     inkscape:showpageshadow="2"
     inkscape:pageopacity="0.0"
     inkscape:pagecheckerboard="0"
     inkscape:deskcolor="#d1d1d1"
     inkscape:document-units="mm"
     inkscape:zoom="1.048534"
     inkscape:cx="397.22128"
     inkscape:cy="561.25984"
     inkscape:window-width="2560"
     inkscape:window-height="1379"
     inkscape:window-x="1920"
     inkscape:window-y="0"
     inkscape:window-maximized="1"
     inkscape:current-layer="layer1"><inkscape:page
       x="-3.5690756e-14"
       y="0"
       width="113.56364"
       height="112.80665"
       id="page2"
       margin="0"
       bleed="0" /></sodipodi:namedview><defs
     id="defs1" /><g
     inkscape:label="Layer 1"
     inkscape:groupmode="layer"
     id="layer1"
     transform="translate(-31.662102,-63.961169)"><rect
       style="fill:#000000;stroke:#0f0000;stroke-width:0.264583"
       id="rect28"
       width="113.29906"
       height="112.54205"
       x="31.794395"
       y="64.09346" /><g
       id="g8"
       inkscape:export-filename="../../Games/trickledown/icon.svg"
       inkscape:export-xdpi="96"
       inkscape:export-ydpi="96"><path
         style="fill:#ecf2f7"
         d="m 61.906473,165.92433 c -0.173161,-3.59833 5.480126,-10.02082 5.960252,-3.02697 0.438477,3.32662 -3.758792,3.32572 -5.960252,3.02697 z m -3.168975,-1.3459 c -4.798046,1.10267 0.469225,-8.68412 -3.765372,-4.52424 -5.742,-1.81131 4.720379,-11.05441 6.932647,-4.92776 1.688859,3.08936 1.207507,9.05613 -3.167275,9.452 z m 12.164137,-4.61187 c -4.43077,-0.74514 -1.76859,-3.86389 1.392583,-3.6455 1.260053,-5.96767 5.966306,-10.04316 10.401312,-13.67447 5.173351,-3.82676 9.465827,4.04618 14.391918,1.49823 4.813302,-3.87941 8.926782,2.77829 4.248602,6.22907 -1.401499,2.76004 -10.210345,7.14781 -6.892942,1.25706 -0.237755,-5.7187 -1.905251,3.85655 -4.514641,0.12874 -2.196694,-3.05253 -5.654568,-0.93561 -5.830456,-4.23192 -2.102908,-2.4233 -5.519727,-0.93497 -1.37223,1.02333 3.731199,3.60588 -5.694223,8.96711 -5.623397,8.28445 1.29067,-2.09237 0.557082,-8.34527 -1.125519,-2.97061 -0.917666,2.52097 -2.579882,4.94041 -5.07523,6.10162 z m 10.14906,-8.03273 c 0.35838,-3.3846 -5.833083,-2.84884 -1.719096,-0.51346 0.473293,0.55817 1.493369,2.75791 1.719096,0.51346 z m 16.580557,0.37798 c 3.443068,-1.16052 -0.09119,-5.85871 -0.22787,-1.11493 -0.479705,0.38038 -0.957957,2.30815 0.22787,1.11493 z m -6.661002,-3.43959 c 2.349144,-2.0133 0.290144,-6.73074 -1.262344,-2.42443 -0.356931,1.00292 -0.767273,5.8739 1.262344,2.42443 z m 11.31407,-1.4993 c -2.944328,-3.46482 -0.71961,4.67004 0,0 z m -14.883625,-0.52917 c 0.981915,-3.03421 -5.99213,-4.95014 -2.160567,-1.37081 0.644445,0.33052 1.856077,4.54048 2.160567,1.37081 z m 14.907195,-2.07195 c -1.23835,-1.94321 -0.98548,2.24001 0,0 z m -26.548863,14.61638 c 0.385865,-3.05906 0.920044,2.25329 0,0 z m -9.172223,-2.59923 c -6.915217,-3.26095 -3.60564,-11.62044 -1.054569,-16.67562 4.997278,-1.43022 4.282958,5.69983 5.832413,8.51005 4.867746,2.46764 -1.078451,8.42675 -4.777844,8.16557 z m -15.522223,-2.62952 c -2.360622,-5.06503 7.908372,-6.07974 5.472779,-2.99123 -2.267927,-1.85323 -5.067672,9.12289 -5.472779,2.99123 z m 8.113889,-6.43374 c 4.649396,-3.85575 0.645423,4.34735 0,0 z m -7.408334,-1.94027 c -5.262958,-2.62562 -4.429331,-11.01211 -0.12569,-14.02102 3.173666,0.0921 -1.222325,5.66505 2.746886,7.12269 3.70639,1.95175 7.819779,3.84064 2.142448,6.43774 -1.441245,0.76205 -3.211707,1.09803 -4.763644,0.46059 z m 5.644445,0.15119 c 0.697043,-2.13314 3.431494,-0.64876 0,0 z m 3.263195,-2.09 c -0.252563,-3.05613 4.309504,-2.34101 0.343162,-0.86409 -0.03065,0.58604 1.394906,2.20854 -0.343162,0.86409 z m 10.337748,-5.43879 c -6.518468,-1.93302 -1.051216,-9.18228 -2.371463,-13.48933 -1.567402,-6.13447 8.639834,-4.61937 6.787998,-0.94959 -3.764939,3.79124 -1.173636,10.13574 -4.416535,14.43892 z"
         id="path28" /><path
         style="fill:#d9e7ee"
         d="m 90.928473,168.71597 c 1.01976,-2.9731 -10.856821,-1.01489 -4.239939,-3.07462 5.682437,-2.70084 -5.818678,0.20698 -1.656335,-4.15036 1.79243,-2.03949 5.364486,-5.79091 0.554179,-4.18469 -3.898426,-6.13224 6.068185,-3.60067 4.727061,1.22451 -0.06551,2.91351 -4.015744,3.23485 0.05329,4.2613 2.446547,2.36958 10.970931,2.38121 5.066005,6.13793 -1.465161,0.51361 -3.062753,0.23378 -4.504266,-0.21407 z m -28.349798,-2.64583 c 3.910623,-1.60109 2.693771,1.98696 0,0 z m -0.93076,-0.17639 c -3.038695,-0.57185 -4.525976,-1.50352 -0.863151,-1.91763 5.059977,-3.6298 0.02053,-15.14786 -5.282831,-8.91235 -3.981016,6.67402 -8.501198,-3.03457 -3.700091,-5.7432 2.131866,-0.97438 7.203326,-2.85222 7.709903,-2.73909 -4.44992,5.90589 6.041595,7.26062 5.660331,12.87233 -2.40201,1.33071 -1.851664,4.5877 -3.524161,6.43994 z m -9.877779,-10.05417 c 1.900295,-1.97378 8.937397,-6.42446 2.362563,-7.0212 -2.183629,1.1972 -4.284257,4.82221 -2.362563,7.0212 z m 15.522224,9.17223 c -0.369108,-2.47869 1.320135,-6.569 3.553619,-2.96596 -1.256077,0.74568 -1.483189,4.91619 -3.553619,2.96596 z M 55.0937,162.22482 c -2.557128,-2.93253 4.963084,-4.21325 1.318691,-0.96716 -0.07751,0.3942 -0.682262,1.58431 -1.318691,0.96716 z m 27.720884,-0.74079 c -2.072186,0.29278 -3.532509,-4.74184 -4.695102,-1.06175 -5.017881,-3.06095 7.272041,-9.67994 4.928004,-1.31271 0.906237,1.95981 3.176718,-2.38649 1.787441,0.98841 -0.32817,0.57635 -1.170115,2.3286 -2.020343,1.38605 z m -13.758335,-1.76389 c -4.188733,-3.62949 5.268954,2.37374 0,0 z m -17.10788,-12.87937 c -1.49406,-3.04484 7.137811,1.14144 1.178553,0.29398 -0.389106,3.8e-4 -0.956777,0.18379 -1.178553,-0.29398 z m -2.864003,-2.3236 c -1.870913,-6.45916 2.487787,2.78684 0,0 z m 51.192724,-1.55398 c -3.39187,-0.638 3.98997,0.3032 0,0 z m -52.119343,-7.12288 c 1.601389,-3.62453 1.785341,0.14463 -0.02014,0.45127 l 0.01335,-0.29909 z"
         id="path27" /><path
         style="fill:#f0dce1"
         d="m 70.086598,156.98611 c 1.483045,-0.17872 2.985957,-4.04062 2.224139,-0.9429 -0.348809,0.25302 -2.276342,1.61521 -2.224139,0.9429 z m 2.598328,-5.02708 c 0.276332,-3.34939 0.111598,3.91383 0,0 z m 21.709831,-23.92344 c 2.282742,-2.19258 8.781443,-8.89348 10.373413,-5.60238 -1.54388,4.00219 -9.337196,5.00806 -10.373413,5.60238 z m -7.117822,-0.51183 c 3.884145,-0.77686 1.170994,-8.96318 -0.0331,-4.34044 -2.366569,5.17743 -11.519244,-7.80416 -3.769515,-3.97696 2.068095,0.96678 6.894142,-0.63741 3.847675,-3.15792 5.133558,-2.7935 10.404307,-7.1632 16.547275,-6.49969 4.52338,4.11533 -2.25855,9.11045 -3.8425,13.18417 -2.752716,4.89159 -11.626248,-4.1524 -8.568152,2.16719 -0.488732,1.62431 -2.339886,3.56318 -4.181679,2.62365 z m 11.735967,-5.28796 c 7.215438,-2.59692 0.333265,-13.29587 -4.658083,-6.62169 -3.263349,2.63555 0.201699,7.7062 3.544191,4.2314 6.94462,0.0562 -5.798847,0.60499 -1.136531,3.58207 0.885114,-0.0882 1.607092,-0.63439 2.250423,-1.19178 z m -12.809365,-0.0857 c -3.23014,-5.10554 -0.609917,3.63215 0,0 z m 17.580403,-3.91522 c 0.9986,-2.95379 2.91332,2.26258 0,0 z m -21.541919,-8.2423 c 0.175145,-2.45165 1.779987,1.64751 0,0 z m 14.566082,-1.48403 c 0.700874,-3.83402 8.331167,0.19475 2.233061,0.14736 -0.723138,0.12119 -1.555381,0.23392 -2.233061,-0.14736 z m -9.575928,-1.14532 c 3.506503,-2.36714 11.981173,-5.0805 13.567305,-1.79595 -4.306643,1.47095 -9.013101,2.54747 -13.567305,1.79595 z m 1.015215,-3.61542 c 1.570761,-2.3966 10.907609,-0.94547 4.315411,-0.022 -1.43646,0.10641 -2.877253,0.039 -4.315411,0.022 z"
         id="path26" /><path
         style="fill:#c5d1d8"
         d="m 88.732937,169.86832 c 2.936502,-0.2066 3.165945,0.33592 0,0 z m 4.444224,0.0159 c -2.293478,-2.11267 6.248485,0.11983 0.906743,-0.50474 -0.235697,-0.191 -0.965244,1.13601 -0.906743,0.50474 z m -8.510494,-5.3015 c 1.946164,-0.24651 2.572446,0.40065 0,0 z M 83.75102,158.3972 c 2.74549,-0.42407 6.219521,-4.02605 2.369791,-0.17426 -0.570317,0.75156 -1.672569,0.76735 -2.369791,0.17426 z m -33.039217,-1.34373 c -2.389038,-1.07814 -0.489986,-7.71686 -0.695683,-2.37486 -0.0145,0.35706 1.952146,3.12736 0.695683,2.37486 z m -2.36373,-3.50696 c 0.203095,-3.95081 0.188071,3.96987 0,0 z m 44.450004,-1.76389 c 0.203095,-3.95081 0.188071,3.96987 0,0 z m -42.703635,-0.92807 c 0.305085,-1.95648 0.967058,-0.90524 0.137786,0.18545 z m 6.967361,-3.27587 c -1.357512,-4.19968 1.675805,1.25019 0,0 z m 29.280559,-0.17639 c -1.274722,-3.20245 1.334034,1.99691 0,0 z m -35.101393,-0.54162 c -2.968059,-2.39191 1.9291,-0.007 -0.183991,0.0961 z m -2.293055,-1.72203 c -3.179132,-2.13222 -1.420986,-9.83924 -0.471615,-9.82613 -1.672596,3.12213 -0.111103,6.64303 0.471615,9.82613 z"
         id="path25" /><path
         style="fill:#eed49d"
         d="m 73.160578,158.92099 c 0.157643,-2.52967 1.955661,-0.54939 0,0 z m -4.457107,-1.84668 c 1.270888,-0.3629 -2.438211,-1.03704 1.345066,-0.89753 4.087437,0.13573 4.216081,-11.36784 4.039781,-3.86929 -0.710091,2.33793 -2.835224,4.63493 -5.384847,4.76682 z m -7.055556,-8.40788 c -0.307011,-2.11208 -1.907013,-2.35359 0.02458,-4.14012 0.637624,1.6998 1.70403,1.94379 1.99858,-0.64581 -0.628617,0.35421 -2.153253,9.41121 -2.023161,4.78593 z"
         id="path24" /><path
         style="fill:#e2bdba"
         d="m 93.04514,129.26635 c 0.588452,-1.43222 2.893071,-3.55678 0.926271,-0.66407 1.53508,-1.14023 5.924961,-2.48496 1.975005,-0.47436 -0.833739,0.50592 -1.810772,1.81205 -2.901276,1.13843 z m -3.26907,-1.8342 c 1.782401,-1.5136 2.28546,-3.09976 1.11198,-4.89266 2.514406,0.24126 7.9117,2.20874 2.55025,2.86261 -1.215568,0.56572 -2.193909,2.20265 -3.66223,2.03005 z m 9.79546,-1.04951 c 1.7999,-1.14124 2.95286,0.87725 0,0 z m -14.569724,-3.95112 c -0.705895,-3.85116 2.075172,1.302 0,0 z m -4.881832,-1.60513 c -3.448562,-6.58798 2.841453,3.38409 0,0 z m 13.9835,-0.0745 c -5.809302,-5.4847 11.302056,-10.94423 7.178946,-2.37686 -1.846015,-0.13378 0.5167,-4.72441 -3.514166,-3.86581 -2.788922,0.24893 -5.350853,5.9961 -1.488871,6.41711 l -1.089637,-0.0585 -1.086272,-0.1159 z m -9.348612,-1.30909 c 2.659986,1.27007 1.825644,-5.24673 3.937263,-1.40412 -0.927809,1.04538 -2.542911,1.74073 -3.937263,1.40412 z m 18.174178,-1.18545 c -0.51082,-2.66738 5.32253,-6.48983 1.39757,-2.09445 -0.28653,0.58461 -0.27527,2.95876 -1.39757,2.09445 z m 1.62323,-1.33196 c 1.23563,-2.98563 3.41324,-2.15388 0,0 z M 90.661805,114.3 c 1.380619,-2.56764 1.687916,-0.23503 -0.09674,0.0974 z m -6.283965,-2.06483 c 1.528754,-1.04649 2.609227,0.84751 0,0 z m 3.981957,-0.53325 c -0.02835,-4.26642 2.481677,-1.25951 0,0 z m -4.111741,-3.2605 c -1.547042,-2.13853 5.217577,-1.06314 0.586812,-0.84235 -0.294431,0.13889 -0.06406,0.96649 -0.586812,0.84235 z m 5.092917,-5.27999 c 2.041654,-1.58482 2.154941,0.56361 0,0 z"
         id="path23" /><path
         style="fill:#b9c9d2"
         d="m 93.872128,170.34965 c -2.297099,-1.16987 -10.128188,0.29607 -8.791355,-3.22122 3.146834,0.14378 6.224329,0.0383 7.554865,2.77286 2.35947,-0.22851 8.118512,-4.53052 4.451941,0.55573 -0.987532,0.55168 -2.264896,0.4973 -3.215451,-0.10737 z m -31.871399,-3.48576 c 2.709001,-0.60399 10.165268,-2.49077 3.531729,0.0702 -1.145865,0.31417 -2.415882,0.40272 -3.531729,-0.0702 z m -1.763925,-0.89766 c -3.95804,-0.75438 -0.37227,-1.17475 1.011408,-0.0754 z m 23.636113,-0.77803 c 2.399735,-1.25852 6.779794,-0.80522 1.989656,0.38256 -0.670468,0.0982 -1.447418,0.10564 -1.989656,-0.38256 z m -27.604864,-0.97275 c -5.540865,-4.44817 2.110397,-0.96596 0,0 z m 26.546531,-1.90827 c -5.857692,-0.79237 -13.794499,1.22056 -17.29834,-4.96237 -2.123821,-1.76044 -8.328985,-7.1786 -6.040089,-8.00679 3.962633,4.29679 7.326907,10.68686 13.798486,11.1859 3.571167,1.50688 5.995321,-3.09693 7.814534,0.44558 0.2161,0.36374 4.029743,0.917 1.725409,1.33768 z m 4.586111,-0.82315 c 1.690644,-1.7847 5.80624,-1.19884 1.984164,0.64561 -0.708588,0.0459 -1.452555,-0.15827 -1.984164,-0.64561 z m -35.766375,-1.3987 c -3.487602,-5.17929 3.882191,0.57242 0.598209,0.45495 -0.199403,-0.15165 -0.398806,-0.3033 -0.598209,-0.45495 z m 33.199053,0.65406 c -0.826493,-2.92414 5.961375,-4.72853 1.681939,-1.55487 -0.344694,0.66433 -0.734092,1.68023 -1.681939,1.55487 z m -2.018789,-3.4593 c -0.295818,-6.59537 5.104885,2.21842 0.03652,2.07368 -0.252266,-0.67665 -0.09215,-1.38576 -0.03652,-2.07368 z m -33.778476,-1.81844 c -2.408458,-1.96738 2.783849,-7.68704 0.526267,-2.54555 -0.257265,0.7662 0.549925,2.20592 -0.526267,2.54555 z m 43.8751,-1.56234 c -1.366175,-3.17576 3.006722,-4.96131 0.704694,-0.92553 -0.0044,-0.1636 -0.808294,2.42428 -0.704694,0.92553 z m -12.566069,-1.76389 c -2.586647,-1.34028 -2.876493,-4.93446 -0.199066,-1.44363 0.336468,0.20044 1.630382,1.85479 0.199066,1.44363 z m 16.227779,0 c 0.435023,-1.9003 3.984692,-4.64495 2.218352,-1.67664 -0.943386,0.22884 -0.857831,2.96707 -2.218352,1.67664 z m -12.700001,-2.64584 c -2.252406,-0.55208 -4.166012,-5.65637 -0.784055,-2.14439 0.332814,0.40298 2.716283,2.33165 0.784055,2.14439 z m 5.291667,-0.88194 c 0.155566,-3.65758 3.953857,-4.45648 2.035662,-0.33018 -0.330299,1.40406 -1.828883,2.9736 -2.035662,0.33018 z M 51.888116,147.6375 c 1.907241,-2.36846 7.042758,1.01336 1.952309,0.39403 -0.617754,-0.002 -1.481854,0.18244 -1.952309,-0.39403 z m 35.042209,0.38218 c -1.57634,-2.16648 -2.291118,-5.36517 0.38252,-1.8459 0.492324,0.55943 0.432123,1.63529 -0.38252,1.8459 z m 13.976845,0.006 c -0.90208,-3.72005 2.79096,0.338 0,0 z m -52.352408,-2.05169 c -2.263469,-1.59128 -3.80377,-7.97622 -1.772722,-7.7017 -0.419551,3.20828 2.805097,7.92767 3.551304,8.60918 -0.672588,-0.0925 -1.305759,-0.42246 -1.778582,-0.90748 z m 9.834135,0.31559 c 0.2148,-2.33343 5.732805,-4.0201 1.960976,-1.11025 l -0.953777,0.59982 z m 2.553462,-5.09006 c 1.773039,-1.6089 2.161913,1.60865 0,0 z m 2.822223,-1.70509 c 0.110446,-4.36702 -8.815614,-10.29269 -0.223567,-11.96455 4.44875,0.18052 3.469362,5.71873 0.798227,6.96716 0.03483,0.59659 -0.122629,9.45323 -0.57466,4.99739 z M 91.534966,85.095572 c 2.238781,-3.019257 1.276574,1.814723 0,0 z"
         id="path22" /><path
         style="fill:#d4af98"
         d="m 88.28264,133.43622 c -2.318416,-2.79549 6.197169,-0.0838 7.707121,-2.41274 4.564689,-1.40922 10.212659,-7.3186 12.524109,-8.4361 -4.0602,6.53056 -11.431421,11.16515 -19.196068,11.17789 l -1.035162,-0.32903 z m -3.263195,-1.04793 c -4.47531,-2.45258 1.063133,-2.18698 0,0 z m 3.615972,-1.41954 c 1.910838,-1.51032 3.794495,1.39123 0.616794,0.15047 z m 14.127443,-5.26525 c -0.37994,-2.81818 6.00291,-8.84964 5.71366,-5.36827 -1.67255,2.01002 -3.45232,4.00412 -5.71366,5.36827 z m 3.53279,-7.40022 c 3.38965,-0.90353 1.78741,-4.43565 1.35743,-4.94775 3.34877,-3.62934 2.80001,6.69499 -1.35743,4.94775 z m 0.36428,-2.23939 c 0.93585,-3.15674 2.08251,0.64571 0,0 z m -0.90238,-3.4164 c -1.57291,-7.29902 5.75697,1.5088 0,0 z m -1.69589,-3.26301 c 2.34839,-3.52806 3.99546,0.30423 0,0 z m -0.0296,-2.14213 c 2.50934,-3.12199 -7.33998,-2.55539 -1.69512,-3.63144 2.28611,0.005 7.09959,3.87557 1.69512,3.63144 z m -4.989717,-4.49583 c -0.70925,-1.10649 3.973347,1.07055 0,0 z"
         id="path21" /><path
         style="fill:#f6b94b"
         d="m 73.377777,159.40545 c 1.641592,-4.23036 5.703288,-10.68806 3.233346,-2.40586 -0.464531,1.28992 -1.60561,3.17133 -3.233346,2.40586 z m -0.440972,-7.29085 c 0.562763,-4.92915 0.762223,4.96297 0,0 z m -11.994446,-2.62502 c 0.396703,-3.1738 0.971254,2.98165 0.03297,0.27748 z m 11.994446,-0.90721 c -4.291832,-1.47037 -0.55271,-5.58935 0.995749,-1.25794 0.278698,0.63688 -0.243339,1.56941 -0.995749,1.25794 z m -10.230557,-3.29672 c -1.020669,-4.23997 2.312343,1.08731 -0.0016,0.0636 z m 5.855151,-4.61551 c -4.648345,-0.28841 -0.660326,-6.5295 1.447525,-2.28156 2.802275,0.76277 0.250057,4.74373 -1.447525,2.28156 z m -22.20888,-5.7116 c -2.042127,-4.07759 8.318314,-5.52068 2.273945,-1.72162 -0.706069,0.63229 -1.350151,1.39264 -2.273945,1.72162 z"
         id="path20" /><path
         style="fill:#c7ac76"
         d="m 92.0375,136.81726 c 4.585759,-0.46853 8.64358,-2.86153 12.92407,-4.36585 -4.12644,3.51703 5.63388,-2.70938 1.04644,0.86059 -3.81565,3.29149 -9.148139,3.76676 -13.97051,3.50526 z m 5.064585,-2.1653 c 0.427102,-1.62344 -10.91024,1.0232 -3.99314,-1.26033 7.379835,-0.66358 11.502515,-7.13238 16.898995,-10.80214 0.85939,-0.6536 2.96641,-4.96552 2.65431,-0.76329 -1.14372,3.5477 -2.31447,2.8145 -2.23627,3.38429 -1.9582,4.8665 -6.73749,3.86521 -9.92489,7.9027 -0.30743,0.45459 -6.007291,3.33277 -3.399005,1.53877 z m 12.376155,-16.5596 c 0.72949,-0.99089 3.17615,-7.18287 2.60822,-2.66458 -0.23682,1.19517 -0.97142,3.49891 -2.60822,2.66458 z m 0.0236,-6.34024 c -2.03432,-3.84948 2.34542,0.29977 0,0 z"
         id="path19" /><path
         style="fill:#9ba1a6"
         d="m 61.647915,167.01088 c -2.704114,0.18199 -2.530666,-2.06731 0,0 z m -13.65262,-13.46435 c 0.203095,-3.95081 0.188071,3.96987 0,0 z m 25.759981,-25.75278 c 0.185932,-4.04632 0.139709,4.18099 0,0 z"
         id="path18" /><path
         style="fill:#71ae9e"
         d="m 87.312501,134.25335 c -2.735609,-2.59771 3.132966,-0.29222 0.462159,0.0438 l -0.298054,-0.0282 z m -2.366687,-1.76791 c -0.989556,-5.15585 3.868569,3.43007 0,0 z m 4.571548,-0.79515 c 4.217278,-2.27619 3.830385,0.58823 0,0 z m -1.320531,-2.11871 c 0.0084,-3.94671 6.571338,-2.76966 2.943808,0.65901 -0.982916,0.47895 -2.096711,-0.18565 -2.943808,-0.65901 z m 5.754103,0.37742 c 2.19636,-4.15042 4.382307,1.88246 0,0 z m 4.292694,-0.94937 c 0.795236,-4.59706 8.412852,-2.52993 9.231362,-7.63512 2.05938,-2.8137 6.00043,-1.18781 2.67684,1.26667 -4.23785,-1.56883 -5.99477,5.93483 -10.536585,6.24507 l -0.668658,0.10216 z M 81.96108,126.88985 c -1.829433,-3.40309 2.597341,1.70269 0,0 z m 28.03094,-1.38916 c 0.32207,-2.34221 2.79929,-2.09646 0,0 z m -30.826927,-2.23264 c -2.339392,-6.45971 7.538258,1.82983 0.576883,0.12238 z m 21.353107,-0.325 c 2.43887,-3.50234 2.08319,-1.60234 -0.0184,0.27513 z m -21.23117,-7.23194 c 0.616739,-3.3469 1.264604,2.06054 2.134257,0.8379 0.438644,1.81492 -3.367024,0.66425 -2.134257,-0.8379 z m 2.19627,0.15866 c 0.234421,-4.98482 3.144539,2.22678 0,0 z m 18.159526,-0.18755 c -1.419573,-3.18228 2.682304,2.44328 0,0 z m -14.552977,-0.0741 c -1.01056,-2.43559 2.516656,-5.53675 -2.038777,-3.95884 -1.883558,1.15075 -5.91095,5.3842 -3.110527,0.7065 0.73248,-3.09825 7.343666,-10.66414 8.501061,-7.11396 -1.960505,0.54477 -7.570817,4.64448 -4.82966,4.32383 2.56747,-0.64973 6.577706,-2.52668 8.835764,-1.25932 -1.68936,2.44473 -3.708229,8.46972 -7.357861,7.30179 z m 4.204511,-4.14084 c 1.969252,-3.58894 -2.9131,0.11146 -0.3355,0.12048 l 0.281772,-0.10119 z m 15.64552,4.10331 c 1.40609,-3.06474 3.17984,-1.94544 0.31994,0.0157 z m 1.95829,-6.45354 c -3.05152,-5.22133 5.38083,1.67487 0,0 z m -9.464075,-2.29533 c 1.234773,-1.66597 3.482435,0.0715 0,0 z"
         id="path17" /><path
         style="fill:#466cb8"
         d="m 54.592359,151.78264 c 2.121316,-3.42727 2.376769,3.30647 0,0 z M 90.103313,87.232113 c -0.960209,-2.295553 2.548677,-4.692521 0.846744,-1.136015 0.216726,3.347877 3.839185,-3.239107 2.772541,0.809821 -0.673287,1.336797 -2.730569,1.572284 -3.619285,0.326194 z"
         id="path16" /><path
         style="fill:#5a944b"
         d="m 88.480325,135.39541 c -3.393012,-2.15132 3.31434,-0.25598 0.756158,0.0692 z m 5.270371,-4.63244 c -5.637674,0.5204 0.930181,-8.56018 0.34519,-3.54642 -2.507102,1.55664 4.042154,5.16398 -0.34519,3.54642 z m -7.714856,-0.62043 c -2.721459,-5.9111 5.706097,1.98056 0,0 z m 12.076436,-8.05914 c -0.821055,-3.50968 4.228134,0.58485 0,0 z m -20.018824,-1.2376 c -1.934002,-3.83148 3.775239,-11.33964 6.291345,-7.51129 0.590731,2.20541 -4.881678,0.0471 -2.023933,3.03428 2.298726,-0.36153 4.869849,2.62999 0.940079,2.09952 -2.023463,-0.48167 -4.273616,-6.44611 -4.078041,-1.38565 -0.05194,1.13051 1.089733,4.03668 -1.12945,3.76314 z m 18.462262,-1.36064 c -1.812168,-3.5335 4.009596,2.18234 0,0 z m 6.983586,0.64321 c -2.76416,-2.70109 5.60703,-0.10379 0.65525,0.0793 z m -2.50507,-0.61768 c -3.122897,-0.76232 2.38624,-0.8886 0,0 z m 9.93352,-0.32191 c -0.71544,-2.66366 1.70993,-1.73692 0,0 z m -11.375452,-1.47076 c -4.009694,0.35298 -0.699064,-5.6 0.547702,-1.37283 1.51261,0.31615 0.74649,2.22767 -0.547702,1.37283 z m 11.091732,-2.03631 c -1.72977,-2.6278 1.5876,-5.39279 0.57552,-1.044 0.0661,-0.0556 -0.48314,3.20589 -0.57552,1.044 z m -21.367866,-1.40735 c -0.144362,-3.9917 3.019001,-0.61755 0,0 z m 3.419679,-2.83239 c -2.773477,-0.98016 2.532339,-4.60893 0.01941,-1.73252 4.711191,0.31275 3.865703,2.2825 -0.01941,1.73252 z m -6.746259,-2.71904 c -3.586105,-1.48484 2.97696,-0.87473 0,0 z"
         id="path15" /><path
         style="fill:#565a5e"
         d="m 98.452568,167.83403 c 0.244046,-3.69343 0.09268,4.07051 0,0 z m -13.785901,1.33482 c 1.946164,-0.24651 2.572446,0.40065 0,0 z M 45.173073,140.14097 c 0.2031,-3.95079 0.188065,3.96989 0,0 z m 39.506475,1.50281 c 4.390002,-0.2742 2.877182,0.43972 -0.533384,0.0616 z m -21.162029,-2.56114 c 0.203095,-3.95081 0.188071,3.96987 0,0 z m -5.75016,-5.99723 c -1.690193,-2.80108 3.654654,1.70509 0,0 z"
         id="path14" /><path
         style="fill:#3b525b"
         d="m 91.872709,136.01225 c -3.701828,-3.41883 9.608261,-0.56271 2.045481,-0.77295 -1.235737,-0.44616 -0.603964,1.75662 -2.045481,0.77295 z m 4.700209,-0.45739 c 3.667592,-2.43725 3.489892,-0.27692 0.06224,0.23727 z m -11.282263,-2.11257 c -3.491432,-0.74871 -1.160564,-3.76789 0.424886,-0.11528 l 0.139704,0.36094 z m 0.571355,-1.23882 c -1.234477,-1.95966 -2.180155,-2.22839 1.004208,-1.46251 2.141465,0.81925 9.957358,0.58121 3.929152,1.48831 -1.64266,0.14494 -3.289292,-0.009 -4.93336,-0.0258 z m 17.76646,-0.0493 c -0.77062,-4.55837 7.61953,-3.41244 2.7267,-0.6206 -0.76883,0.48603 -1.78917,1.1161 -2.7267,0.6206 z m -8.290274,-1.79347 c 0.890299,-2.7686 3.351411,-3.45789 3.089688,-0.1074 -1.003166,0.3045 -2.066117,0.0595 -3.089688,0.1074 z m -15.503602,-2.53682 c -0.96709,-2.35507 -2.59986,-7.6429 1.22716,-3.80439 1.484726,1.23925 3.543345,2.51933 1.438979,-0.0285 1.834676,-0.69366 7.169672,1.58156 4.928721,-2.25273 7.310994,3.26767 -4.385638,7.32845 -7.59486,6.08562 z m 3.116568,-1.24139 c -2.243343,-3.09914 -1.137617,2.08686 0,0 z m 27.993468,-1.41785 c 2.31356,-3.39004 -1.81195,3.56691 0,0 z m -16.96873,0.33605 c 2.299643,-0.29339 9.60323,-4.99179 4.337252,-0.87549 -1.226807,0.86519 -2.863059,1.50699 -4.337252,0.87549 z m 1.614931,-2.23847 c -0.484191,-5.79038 6.232449,1.20217 0,0 z m -0.194299,-3.13733 c -5.280503,-0.9642 4.461002,-7.71728 0.787068,-1.79589 -0.374185,1.152 1.873244,2.78407 -0.787068,1.79589 z m 14.052778,-0.65229 c 1.23406,-3.249 1.79816,0.77605 0,0 z m -10.913268,-0.10855 c 0.158877,-3.26635 3.416238,-0.0662 0,0 z m 8.002848,0.0651 c 0.54406,-3.58506 5.69754,-1.62264 0,0 z M 84.002949,118.8043 c 5.206205,-0.99477 -4.086531,-3.56126 0.503971,-3.24838 3.625093,0.93057 3.512739,4.92129 -0.503971,3.24838 z m 27.609981,-1.08841 c 0.42462,-3.79133 0.69489,3.1126 0,0 z m -6.73668,-0.1316 c -0.38669,-3.69763 7.1217,-3.53436 2.55812,-0.40174 -0.70816,0.48013 -1.75722,1.06881 -2.55812,0.40174 z m 2.49177,-1.34944 c 3.2366,-2.88212 -2.25403,-0.50612 -0.19101,0.0294 z M 99.116565,115.787 c -1.06971,-5.02353 2.101145,2.55301 0,0 z m 10.161755,-0.0794 c 0.0141,-2.56396 2.63878,0.15892 0,0 z m -18.90764,-1.79602 c -1.473865,-2.43225 3.171764,-7.31493 2.129922,-2.26297 -0.07182,1.016 -0.710288,3.06926 -2.129922,2.26297 z m 19.78418,0.20067 c -2.20131,-2.50281 1.92105,-1.15717 0,0 z m -2.64583,-1.02198 c 2.29486,-2.00949 -1.67181,-8.55385 1.53544,-4.82621 1.26007,1.61488 0.55493,4.33577 -1.53544,4.82621 z m -13.405556,-2.97623 c -3.322682,-2.18429 4.386978,-4.8905 2.964698,-1.23547 1.871883,1.41135 7.335448,-2.43653 3.304448,-2.83576 5.10785,-1.07951 4.34579,4.89355 -0.397649,3.8467 -1.909564,0.45791 -3.94382,0.77142 -5.871497,0.22453 z m 10.936116,-0.27755 c 1.25356,-2.69904 3.53719,1.13632 0,0 z m -17.095249,-4.18088 c 2.325084,-2.24814 8.960752,-3.3707 9.94983,-2.33969 -2.998069,1.85513 -6.724039,1.22032 -9.94983,2.33969 z"
         id="path13" /><path
         style="fill:#30394d"
         d="m 91.029373,160.42569 c 0.276344,-3.34934 0.111584,3.91387 0,0 z M 71.979371,137.49514 c 0.276332,-3.34939 0.111596,3.91383 0,0 z M 87.753473,88.085424 c 2.264805,-4.203906 3.515343,4.203743 0,0 z m 2.822222,-1.566681 c 1.773033,-1.608915 2.161925,1.608659 0,0 z m -1.058333,-1.743069 c 1.269969,-2.245739 2.337092,1.800022 0,0 z m 3.96875,-0.549986 c -0.04032,-4.172552 4.285161,1.877453 1.135911,-0.98622 -0.296975,0.449889 -0.818028,2.612615 -1.135911,0.98622 z"
         id="path12" /><path
         style="fill:#254933"
         d="m 83.872917,129.55764 c -4.404218,-2.32046 4.252855,-0.59901 0.345193,0.42022 l -0.190038,-0.23134 z m 1.763889,-2.68358 c 2.115119,-2.24817 1.700087,2.73516 0,0 z m 11.28889,-8.25254 c 1.287149,-3.48976 2.36001,1.28652 0,0 z"
         id="path11" /><path
         style="fill:#2a2a2b"
         d="m 62.610185,167.40303 c 2.962201,-0.24793 3.487014,0.36677 0,0 z m -7.224076,-28.53928 c -4.689801,-2.2432 -0.786969,-11.23352 2.959473,-5.50804 7.482345,1.64404 4.450642,11.24709 -2.282127,6.14908 z m 45.162711,-5.83247 c 4.9896,-2.68194 -2.369331,3.20069 0,0 z m 5.79707,-0.90157 c 1.28241,-1.8294 6.10764,-7.66339 5.39074,-6.42258 -1.16299,2.52651 -2.4692,5.56546 -5.39074,6.42258 z m -38.595037,-1.51374 c 0.203097,-3.9508 0.188067,3.96988 0,0 z m 15.373716,0.41618 c -3.190341,-1.16066 -1.753349,-5.33261 0.541937,-1.69094 -4.276536,-1.84394 1.688908,2.4306 -0.541937,1.69094 z m -9.010825,-2.88562 c 0.229509,-4.03507 0.112555,4.05848 0,0 z m -6.362891,-4.58612 c 0.2031,-3.95079 0.188066,3.96989 0,0 z m 30.421074,-4.92026 c -0.244406,-3.14142 2.852893,0.93023 0,0 z m 4.104053,-12.67494 c 0.76272,-2.46192 2.40015,1.9295 0,0 z"
         id="path10" /><path
         style="fill:#090514"
         d="m 35.200799,142.34583 c -0.161085,-11.9721 0.281025,-23.95419 0.284244,-35.9135 -0.623468,-13.332942 -0.13878,-26.681886 -0.295463,-40.021922 35.27778,0 70.55556,0 105.83334,0 0,35.277782 0,70.555562 0,105.833342 -35.27778,0 -70.55556,0 -105.83334,0 0.0037,-9.96597 0.0075,-19.93195 0.01122,-29.89792 z M 96.84382,171.6389 c -2.540336,-0.26196 -2.822864,0.37592 0,0 z m -4.758174,-0.71127 c -6.771969,-0.27412 0.06586,0.5259 0,0 z m 6.342506,0.0252 c 3.299458,-5.38554 -4.735616,-7.47924 -6.506274,-9.4259 1.42997,-5.90947 -6.268809,-10.20011 -9.082633,-7.85538 3.737431,-6.54185 8.080204,1.02029 11.971676,2.67061 3.694288,-2.45494 11.487029,-6.40103 8.973229,-11.92823 -3.57933,-5.30145 -10.726388,3.50316 -14.153904,-2.90943 -6.570549,-3.61254 -10.134516,6.42358 -15.654894,5.00408 -5.941626,-3.91649 -0.06596,-9.786 -0.351571,-14.89251 -0.880772,-4.24601 6.403075,-10.29433 -0.632136,-11.76782 -5.820118,-1.21949 -5.593323,4.87303 -4.788751,8.20065 -3.837046,-1.5793 -8.558291,-1.10736 -10.167176,2.98195 -4.534263,-0.6907 -14.067017,-2.83864 -12.2886,5.04829 -1.65188,4.36597 0.02821,10.82149 5.281653,11.988 -3.158492,-0.18589 -3.060147,6.20189 -3.734599,5.11346 1.491382,5.41512 4.997902,10.46855 10.625283,12.7401 5.108659,4.15373 10.86519,2.08465 13.77471,-2.56976 3.200347,-1.04526 7.561685,-0.17013 10.978189,0.10677 0.815957,1.63073 -0.13154,7.58252 0.510895,2.66177 0.400391,-5.61419 0.06628,0.72508 0.329011,2.78376 3.498124,1.58434 7.483644,1.68343 12.569925,2.11112 0.782298,0.0193 1.565959,0.004 2.345967,-0.0615 z M 64.812216,137.61597 c -2.535221,-3.21984 4.624419,-5.81899 1.400968,-1.13214 -0.485857,1.35965 -1.735038,4.58735 -1.400968,1.13214 z m 60.492414,13.84573 c -0.0961,-4.177 -3.68912,1.95113 0,0 z M 44.617471,139.00076 c -0.445401,2.00953 0.327665,3.01901 0,0 z m 55.306836,-2.51504 c 12.396083,-2.64034 17.332803,-20.42442 8.126583,-29.13962 -7.24568,-7.921927 -21.765862,-6.92949 -27.366905,2.44049 -5.753074,8.64587 -2.225351,22.04336 7.721281,25.83806 3.595992,1.56343 7.733973,1.94831 11.519041,0.86107 z m 24.165283,-19.80447 c -2.05254,-3.53719 -1.85254,3.34731 0,0 z m -70.379176,-9.52017 c -2.211101,-3.49014 -2.209279,3.34234 0,0 z M 65.816487,95.599755 c -1.185852,-3.350334 -1.818194,3.464252 0,0 z m 47.029233,0.179406 c 1.06343,-4.308133 -3.77853,1.163421 0,0 z m -22.270025,-7.34096 c -1.821935,-1.940221 6.172341,0.287729 5.002034,-3.813988 -0.625426,-7.505506 -12.987842,6.305231 -5.002034,3.813988 z m 3.527779,-4.094921 c 1.290894,-2.393774 1.035326,2.241402 0,0 z m 31.158866,-7.912994 c -3.33905,-1.944921 -0.11084,3.713208 0,0 z m -53.453411,-3.88956 c -1.710059,-3.442718 -2.211342,3.087396 0,0 z"
         id="path9" /><path
         style="fill:#020107"
         d="m 94.727153,171.6353 c 2.000713,-0.17615 3.104109,0.35484 0,0 z m -4.327846,-0.79515 c 6.264468,-0.35842 -11.864037,-0.79015 -3.101376,-0.9924 2.488642,-0.44861 8.398306,1.41465 2.570704,1.21164 -2.463976,0.0742 -0.880233,-0.22176 0.530672,-0.21929 z m -7.52003,-4.41723 c 1.321013,-7.06157 -10.846378,-1.21317 -10.964025,-3.9578 4.700471,-1.20362 13.514249,-1.95926 11.027919,5.6259 -0.284504,-0.49489 0.224421,-1.18891 -0.06389,-1.6681 z m -21.231362,1.5875 c 2.351605,-1.53212 5.038554,1.07145 1.091257,0.29511 l -0.558649,-0.0926 z m 4.938889,-0.70556 c 2.303663,-1.32451 2.908765,0.80899 0,0 z m -8.791587,-0.79895 c -2.924802,-1.92558 3.432994,0.16161 0,0 z m 12.319365,-2.05516 c 0.06449,-2.96554 1.403953,1.41945 0.420106,0.97362 z m 24.787492,-0.22126 c 1.983583,-0.68222 1.536553,0.72367 0,0 z m -41.946031,-1.68713 c -2.390192,-0.4485 -3.678119,-5.13396 -1.006079,-1.56391 0.33023,0.37152 3.162171,2.05176 1.006079,1.56391 z m 38.450428,-2.46944 c 0.06814,-4.3906 0.176358,4.28609 0,0 z M 47.735092,155.8235 c -0.645282,-2.57835 -0.454585,-4.49437 0.249112,-0.64721 0.407762,0.2195 1.557744,2.75547 -0.249112,0.64721 z m 45.398243,0.63913 c 1.827213,-1.76177 7.797455,-3.06976 2.639369,-0.46477 -0.800018,0.39253 -1.734549,0.78868 -2.639369,0.46477 z m -4.646456,-2.47513 c -2.433297,-0.80227 -6.083638,-0.55354 -1.515732,-0.83011 0.250785,0.0242 2.43364,-0.007 1.515732,0.83011 z m -6.813591,-0.33785 c 1.295803,-1.72412 1.328074,0.30461 0,0 z m 9.607963,-0.005 c -3.44437,-1.21762 3.539984,0.4415 0,0 z m -8.466667,-1.58042 c 2.895145,-1.80865 3.047991,0.90445 0,0 z m -34.925004,-0.9725 c 0.616493,-3.87806 2.131861,1.15743 0,0 z m 52.73582,0.33091 c 0.43014,-2.67891 2.90556,-0.50894 0,0 z m 1.78256,-1.73369 c 0.43275,-2.33395 2.72177,-0.5265 0,0 z m -53.032983,-1.27112 c 0.87998,-1.98855 1.507719,1.96988 0,0 z m 25.325717,-0.30996 c -1.373907,-3.40843 2.130353,1.97874 0,0 z m 29.386276,-1.96968 c 0.20307,-3.95079 0.18808,3.96989 0,0 z m -57.520307,-0.61343 c -2.048035,-3.45669 0.448896,-3.46336 0.40295,-0.22774 z m 24.253475,-3.64072 c 0.374307,-4.07019 0.359843,3.85996 0,0 z m 11.788224,0.0208 c 2.319087,-1.21643 9.703554,-0.29205 3.129746,-0.41743 -1.051328,0.0495 -2.112871,0.12299 -3.129746,0.41743 z m 16.874973,0.45288 c 1.946165,-0.24652 2.572435,0.40066 0,0 z m -55.012218,-2.39316 c 0.234948,-4.01736 0.14226,4.05079 0,0 z M 64.52944,137.7597 c 0.211821,-5.23285 0.528713,5.16827 0.07726,1.9329 l -0.08375,-1.17108 z m -8.173987,2.82222 c 2.519422,-0.72979 7.306595,0.51752 2.164367,0.2089 -0.724782,-0.005 -1.458145,-0.0259 -2.164367,-0.2089 z M 45.067358,137.4347 c 0.687347,-2.4299 0.520859,-6.3601 1.55284,-1.75767 -0.0213,0.63874 -0.596964,2.80026 -1.55284,1.75767 z m 21.931527,-2.67361 c -1.961034,-3.02941 1.139552,-1.31495 0.05431,1.08032 z m 6.003178,-1.54636 c 1.55309,-6.85004 -0.233384,5.48234 0,0 z M 58.120137,132.0027 c -2.72902,-0.51887 1.581869,-2.84582 1.59864,-3.60786 -0.172608,0.60087 -0.756731,3.89765 -1.079698,3.72476 l -0.29207,-0.0658 z m 9.716455,-3.47902 c 0.85089,-1.94676 1.225662,-4.19162 1.172453,-0.39354 -0.04688,0.56971 -0.870598,1.10538 -1.172453,0.39354 z m 4.752837,-7.52091 c 3.80526,-2.96171 2.06257,1.09049 0,0 z m 49.736271,-4.32152 c 2.05254,-3.53719 1.85254,3.34731 0,0 z m -87.124901,-6.26181 c 0.344881,-4.37424 0.988877,3.80384 0,0 z M 64.254938,96.246206 c -0.414064,-3.766175 3.305804,0.888303 0,0 z"
         id="path8" /></g></g></svg>
